<svg xmlns="http://www.w3.org/2000/svg" viewBox="0 0 356.93617 356.93617" preserveAspectRatio="xMidYMid meet" width="53.87" height="43.61" >
  <defs>
    <style>
      .a {
        fill: #fff;
      }

      .b {
        fill: #51172f;
      }
    </style>
  </defs>
  <rect class="a" width="356.93617" height="356.93617"/>
  <g>
    <path class="b" d="M35.59924,102.26983c0-15.42481,11.01025-24.26954,23.17969-24.26954S81.95862,86.845,81.95862,102.26983c0,15.30566-11.01026,24.15039-23.17969,24.15039S35.59924,117.57549,35.59924,102.26983Zm35.23047,0c0-9.28565-4.5166-15.40381-12.05078-15.40381s-12.05078,6.11816-12.05078,15.40381c0,9.22558,4.5166,15.28418,12.05078,15.28418S70.82971,111.49541,70.82971,102.26983Z"/>
    <path class="b" d="M94.72082,79.12822h8.87549l.83008,6.94825h.376c4.41455-4.46387,9.60888-8.07618,16.64941-8.07618,10.6709,0,15.48047,6.80567,15.48047,18.69873v28.59327H126.06018V98.1126c0-7.40576-2.38672-10.792-8.60449-10.792-4.55518,0-7.63428,2.20849-11.86329,6.4873v31.48438H94.72082Z"/>
    <path class="b" d="M149.14905,102.15068c0-15.0581,11.43652-24.15039,23.79394-24.15039,13.78027,0,21.418,9.13965,21.418,21.91358a36.03373,36.03373,0,0,1-.47949,5.45849H156.90588V97.701H186.861l-2.07715,2.40332c0-9.11865-4.28809-13.75195-11.51562-13.75195-7.63086,0-13.51368,5.49462-13.51368,15.79833,0,10.73926,6.46582,15.85792,16.06543,15.85792a25.13537,25.13537,0,0,0,12.94434-3.77149l3.7168,6.73145a33.55538,33.55538,0,0,1-18.084,5.45166C160.2594,126.42022,149.14905,117.51592,149.14905,102.15068Z"/>
  </g>
  <g>
    <path class="b" d="M109.87707,171.32842v-44.4751H94.756v-3.20361h18.80615V171.826c0,6.29345,3.03272,9.2666,8.69238,9.2666a18.6337,18.6337,0,0,0,8.21729-2.06787l1.19873,2.84912a20.66054,20.66054,0,0,1-9.94287,2.46728C114.18469,184.34111,109.87707,180.389,109.87707,171.32842Z"/>
    <path class="b" d="M142.78918,163.50274c0-13.34668,8.87207-21.0044,19.314-21.0044,10.4414,0,19.31347,7.65772,19.31347,21.0044,0,13.18017-8.87207,20.83837-19.31347,20.83837C151.66125,184.34111,142.78918,176.68291,142.78918,163.50274Zm34.77637,0c0-10.50391-6.4751-17.75586-15.4624-17.75586-8.9878,0-15.46289,7.25195-15.46289,17.75586,0,10.48144,6.47509,17.58984,15.46289,17.58984C171.09045,181.09258,177.56555,173.98418,177.56555,163.50274Z"/>
    <path class="b" d="M193.80334,178.0335l1.94531-2.69092c4.40577,3.44043,9.70264,5.84033,18.05616,5.84033,8.13476,0,12.30078-3.668,12.30078-7.85644,0-3.61475-1.39551-6.49805-14.043-9.041-10.11719-2.03662-15.89014-5.30322-15.89014-11.18018,0-5.74853,4.88037-10.60693,15.55616-10.60693a27.97178,27.97178,0,0,1,15.2998,4.90381l-1.99023,2.64551a22.54858,22.54858,0,0,0-13.5879-4.41358c-8.67968,0-11.47167,3.52442-11.47167,7.25977,0,4.21094,4.09082,6.30957,13.11523,8.17334,13.78418,2.9043,16.83984,6.10351,16.83984,12.02539,0,6.01269-5.96679,11.24853-16.47558,11.24853A34.05193,34.05193,0,0,1,193.80334,178.0335Z"/>
    <path class="b" d="M255.4718,168.44512V146.69756H243.41418v-2.84912l12.125-.35449.49024-13.18848h3.12695V143.494h21.20312v3.20361H259.15637v22.01172c0,7.76465,2.22559,12.40576,11.11523,12.40576a27.57282,27.57282,0,0,0,10.59375-2.06738l1.01075,2.82617a30.90584,30.90584,0,0,1-12.13184,2.46728C258.80578,184.34111,255.4718,177.9207,255.4718,168.44512Z"/>
  </g>
  <g>
    <path class="b" d="M123.61633,226.05693c0-14.95654,9.852-24.168,20.48584-24.168,5.36377,0,9.40039,2.07421,13.21436,5.61718h.22265l-.4458-8.06738V182.30059h9.36328v66.64306h-7.65527l-.74561-5.6997h-.29931c-3.67237,3.73095-8.96582,6.82763-14.41895,6.82763C131.47668,250.07158,123.61633,241.2835,123.61633,226.05693Zm33.477,10.07081v-21.729c-3.71484-3.44971-7.23486-4.70166-10.86719-4.70166-7.1582,0-13.02343,6.21826-13.02343,16.24805,0,10.44726,4.6372,16.31836,12.30029,16.31836C149.66418,242.26348,153.47278,240.28838,157.09338,236.12774Z"/>
    <path class="b" d="M184.339,225.90361c0-14.956,11.2666-24.01464,23.55664-24.01464,13.47461,0,21.14746,8.85156,21.14746,21.67627a34.09717,34.09717,0,0,1-.42871,5.08593H190.82483v-6.85791h31.95556l-2.02636,2.28467c0-9.94971-4.81348-14.939-12.60059-14.939-8.03809,0-14.63281,5.93554-14.63281,16.76464,0,11.28174,7.07617,16.84131,16.94629,16.84131a24.98712,24.98712,0,0,0,13.41992-4.043l3.27637,5.918a32.45619,32.45619,0,0,1-17.88184,5.45166C195.34778,250.07158,184.339,241.201,184.339,225.90361Z"/>
    <path class="b" d="M242.47766,203.0169h9.5166l9.70215,24.84814c1.71582,4.62305,3.30273,9.20508,4.84765,13.74561h.376c1.5459-4.54053,2.97949-9.12256,4.77149-13.74561l9.70214-24.84814h8.99414l-18.49609,45.92675h-10.584Z"/>
  </g>
</svg>
